<svg width="746.66663" height="746.66663" xmlns="http://www.w3.org/2000/svg">
 <metadata id="metadata19726">image/svg+xml</metadata>
 <defs>
  <clipPath clipPathUnits="userSpaceOnUse" id="clipPath19736">
   <path d="m0,600l600,0l0,-600l-600,0l0,600z" id="path19734"/>
  </clipPath>
 </defs>
 <g>
  <title>background</title>
  <rect fill="none" id="canvas_background" height="602" width="802" y="-1" x="-1"/>
 </g>
 <g>
  <title>Layer 1</title>
  <g id="g19728" transform="matrix(1.3333333,0,0,-1.3333333,-26.666666,773.33331) ">
   <g id="g19730">
    <g id="g19732" clip-path="url(#clipPath19736)">
     <g id="g19738">
      <path fill="#98b0b5" fill-rule="nonzero" d="m300,28c-72.654,0 -140.959,28.293 -192.333,79.667c-51.374,51.374 -79.667,119.68 -79.667,192.333c0,72.654 28.293,140.959 79.667,192.333c51.374,51.374 119.679,79.667 192.333,79.667c72.653,0 140.959,-28.293 192.333,-79.667c51.374,-51.374 79.667,-119.679 79.667,-192.333c0,-72.653 -28.293,-140.959 -79.667,-192.333c-51.374,-51.374 -119.68,-79.667 -192.333,-79.667" id="path19740"/>
     </g>
     <g id="g19742">
      <path fill="#ffffff" fill-rule="nonzero" d="m300,580c-37.793,0 -74.463,-7.405 -108.994,-22.01c-33.344,-14.104 -63.286,-34.291 -88.996,-60c-25.709,-25.71 -45.896,-55.652 -60,-88.996c-14.605,-34.531 -22.01,-71.201 -22.01,-108.994c0,-37.793 7.405,-74.464 22.01,-108.993c14.104,-33.345 34.291,-63.287 60,-88.997c25.71,-25.709 55.652,-45.897 88.996,-59.999c34.531,-14.606 71.201,-22.011 108.994,-22.011c37.793,0 74.464,7.405 108.993,22.011c33.345,14.102 63.287,34.29 88.997,59.999c25.709,25.71 45.897,55.652 59.999,88.997c14.606,34.529 22.011,71.2 22.011,108.993c0,37.793 -7.405,74.463 -22.011,108.994c-14.102,33.344 -34.29,63.286 -59.999,88.996c-25.71,25.709 -55.652,45.896 -88.997,60c-34.529,14.605 -71.2,22.01 -108.993,22.01m0,-16c145.803,0 264,-118.197 264,-264c0,-145.803 -118.197,-264 -264,-264c-145.803,0 -264,118.197 -264,264c0,145.803 118.197,264 264,264" id="path19744"/>
     </g>
     <g id="g19746">
      <path fill="#ffffff" fill-rule="nonzero" d="m78.6426,272.7793c-1.381,0.291 -1.32,2.293 0.079,2.479c12.504,1.672 42.559,2.757 81.66,-15.666c52,-24.5 135.969,-79.236 185.7,-76.263c42.05,2.513 62.531,18.325 60.3,37.763c-1.75,15.25 -18.75,25.25 -31.75,20.25c-13,-5 -18.75,-16.75 -17.75,-27.75c-11,8.5 -7,25 -3.5,29.5c3.5,4.5 22.692,30.667 55.5,8c27.5,-19 15.875,-56.014 0,-70c-10.5,-9.25 -42,-32.5 -101.5,-17.5c-59.5,15 -123.649,69.333 -157.5,85.5c-31.154,14.879 -44.578,18.083 -71.239,23.687" id="path19748"/>
     </g>
     <g id="g19750">
      <path fill="#ffffff" fill-rule="nonzero" d="m168.0537,279.37399c-0.97,0.531 -0.358,2.014 0.7,1.69c22.24,-6.79 78.774,-19.585 119.628,-8.971c59.667,15.5 70.5,50.999 130,79.833c37.951,18.39 87.5,5.166 101,-31.834c13.5,-36.999 -21.667,-62.499 -49.5,-60.999c-22.972,1.237 -38.491,14.355 -41.5,25.019c-3.333,11.814 1.333,27.147 15,31.48c-4,-17.999 5.786,-37.679 26,-36.499c20,1.166 37.667,26.222 19,44.999c-18.696,18.807 -42,15.167 -56,6.5c-14.928,-9.241 -50,-43.999 -80,-58.499c-28.79,-13.915 -70.96,-29.096 -114.567,-17.501c-37.151,9.878 -48.553,13.175 -69.761,24.782" id="path19752"/>
     </g>
     <g id="g19754">
      <path fill="#ffffff" fill-rule="nonzero" d="m111.6816,313.17139c-1.263,0.484 -0.869,2.371 0.483,2.316c17.13,-0.694 65.046,0.092 90.217,28.105c31,34.5 23.941,58.037 51.5,83c19.25,17.436 63.27,22.991 94.25,-3.5c34.5,-29.5 16.167,-87.084 -18.083,-104.834c-29.002,-15.029 -65.417,-10.166 -73.667,13.334c-9.187,26.169 9.75,49.25 29,49c20.302,-0.264 17.5,-20.5 17.5,-20.5c0,0 -6,10.495 -14.25,9.25c-10.455,-1.577 -19.681,-14.673 -14.25,-27.75c6.75,-16.25 35.777,-23.443 56.667,1.333c21.5,25.5 16.833,60.167 -18.667,72.667c-32.81,11.553 -52.048,-12.647 -69.5,-45.005c-13.75,-25.495 -29.25,-57.995 -76.5,-60.715c-34.634,-1.994 -48.046,0.746 -54.7,3.299" id="path19756"/>
     </g>
    </g>
   </g>
  </g>
  <text xml:space="preserve" text-anchor="start" font-family="Helvetica, Arial, sans-serif" font-size="200" id="svg_2" y="150" x="0" stroke-width="0" fill="#98b0b5">1</text>
 </g>
</svg>