<svg width="746.66663" height="746.66663" xmlns="http://www.w3.org/2000/svg">
 <metadata id="metadata22694">image/svg+xml</metadata>
 <defs>
  <clipPath clipPathUnits="userSpaceOnUse" id="clipPath22704">
   <path d="m0,600l600,0l0,-600l-600,0l0,600z" id="path22702"/>
  </clipPath>
 </defs>
 <g>
  <title>background</title>
  <rect fill="none" id="canvas_background" height="602" width="802" y="-1" x="-1"/>
 </g>
 <g>
  <title>Layer 1</title>
  <g id="g22696" transform="matrix(1.3333333,0,0,-1.3333333,-26.666666,773.33331) ">
   <g id="g22698">
    <g id="g22700" clip-path="url(#clipPath22704)">
     <g id="g22706">
      <path fill="#202830" fill-rule="nonzero" d="m300,28c-72.653,0 -140.959,28.293 -192.333,79.667c-51.374,51.374 -79.667,119.68 -79.667,192.333c0,72.653 28.293,140.959 79.667,192.333c51.374,51.374 119.68,79.667 192.333,79.667c72.653,0 140.959,-28.293 192.333,-79.667c51.374,-51.374 79.667,-119.68 79.667,-192.333c0,-72.653 -28.293,-140.959 -79.667,-192.333c-51.374,-51.374 -119.68,-79.667 -192.333,-79.667" id="path22708"/>
     </g>
     <g id="g22710">
      <path fill="#ffffff" fill-rule="nonzero" d="m300,580c-37.793,0 -74.464,-7.405 -108.993,-22.011c-33.345,-14.102 -63.287,-34.29 -88.997,-59.999c-25.709,-25.71 -45.897,-55.652 -59.999,-88.997c-14.606,-34.529 -22.011,-71.2 -22.011,-108.993c0,-37.793 7.405,-74.464 22.011,-108.993c14.102,-33.345 34.29,-63.287 59.999,-88.997c25.71,-25.709 55.652,-45.896 88.997,-59.999c34.529,-14.606 71.2,-22.011 108.993,-22.011c37.793,0 74.464,7.405 108.993,22.011c33.345,14.103 63.287,34.29 88.997,59.999c25.709,25.71 45.897,55.652 59.999,88.997c14.606,34.529 22.011,71.2 22.011,108.993c0,37.793 -7.405,74.464 -22.011,108.993c-14.102,33.345 -34.29,63.287 -59.999,88.997c-25.71,25.709 -55.652,45.897 -88.997,59.999c-34.529,14.606 -71.2,22.011 -108.993,22.011m0,-16c145.803,0 264,-118.196 264,-264c0,-145.803 -118.197,-264 -264,-264c-145.803,0 -264,118.197 -264,264c0,145.804 118.197,264 264,264" id="path22712"/>
     </g>
     <g id="g22714">
      <path fill="#ffffff" fill-rule="nonzero" d="m345.83011,154.2148c-8.87,0 -17.561,0.8 -26,2.32c6.06,2.781 11.92,5.941 17.54,9.441c1.786,1.112 3.539,2.271 5.276,3.453c73.09,1.203 131.963,59.194 131.963,130.566c0,71.385 -58.877,129.378 -131.971,130.577c-1.739,1.181 -3.492,2.34 -5.279,3.454c-5.619,3.5 -11.469,6.659 -17.529,9.439c8.439,1.521 17.13,2.32 26,2.32c80.38,0 145.779,-65.4 145.779,-145.79c0,-80.38 -65.399,-145.78 -145.779,-145.78m-45.83,7.38c-6.42,-2.14 -13.05,-3.83 -19.83,-5.06c-8.44,-1.52 -17.12,-2.32 -25.99,-2.32c-80.39,0 -145.79,65.4 -145.79,145.78c0,80.39 65.4,145.79 145.79,145.79c8.87,0 17.55,-0.799 25.99,-2.32c6.78,-1.229 13.41,-2.92 19.83,-5.06c6.019,-1.99 11.87,-4.379 17.51,-7.11c48.75,-23.61 82.45,-73.59 82.45,-131.3c0,-57.7 -33.7,-107.679 -82.45,-131.29c-5.64,-2.729 -11.491,-5.12 -17.51,-7.11m45.83,296.19c-15.93,0 -31.311,-2.37 -45.82,-6.79c-14.51,4.42 -29.901,6.79 -45.83,6.79c-87.01,0 -157.79,-70.78 -157.79,-157.79c0,-87 70.78,-157.78 157.79,-157.78c15.929,0 31.32,2.37 45.83,6.79c14.509,-4.42 29.89,-6.79 45.82,-6.79c87,0 157.779,70.78 157.779,157.78c0,87.01 -70.779,157.79 -157.779,157.79" id="path22716"/>
     </g>
    </g>
   </g>
  </g>
  <text xml:space="preserve" text-anchor="start" font-family="Helvetica, Arial, sans-serif" font-size="200" id="svg_2" y="150" x="0" stroke-width="0" fill="#202830">6</text>
 </g>
</svg>