<svg width="746.66663" height="746.66663" xmlns="http://www.w3.org/2000/svg">
 <metadata id="metadata21510">image/svg+xml</metadata>
 <defs>
  <clipPath clipPathUnits="userSpaceOnUse" id="clipPath21520">
   <path d="m0,600l600,0l0,-600l-600,0l0,600z" id="path21518"/>
  </clipPath>
 </defs>
 <g>
  <title>background</title>
  <rect fill="none" id="canvas_background" height="602" width="802" y="-1" x="-1"/>
 </g>
 <g>
  <title>Layer 1</title>
  <g id="g21512" transform="matrix(1.3333333,0,0,-1.3333333,-26.666666,773.33331) ">
   <g id="g21514">
    <g id="g21516" clip-path="url(#clipPath21520)">
     <g id="g21522">
      <path fill="#7da82a" fill-rule="nonzero" d="m300,28c-72.654,0 -140.959,28.293 -192.333,79.667c-51.374,51.374 -79.667,119.68 -79.667,192.333c0,72.653 28.293,140.959 79.667,192.333c51.374,51.374 119.679,79.667 192.333,79.667c72.653,0 140.959,-28.293 192.333,-79.667c51.374,-51.374 79.667,-119.68 79.667,-192.333c0,-72.653 -28.293,-140.959 -79.667,-192.333c-51.374,-51.374 -119.68,-79.667 -192.333,-79.667" id="path21524"/>
     </g>
     <g id="g21526">
      <path fill="#ffffff" fill-rule="nonzero" d="m300,580c-37.793,0 -74.463,-7.405 -108.994,-22.011c-33.344,-14.102 -63.286,-34.29 -88.996,-59.999c-25.709,-25.71 -45.896,-55.652 -60,-88.997c-14.605,-34.529 -22.01,-71.2 -22.01,-108.993c0,-37.793 7.405,-74.464 22.01,-108.993c14.104,-33.345 34.291,-63.287 60,-88.997c25.71,-25.709 55.652,-45.896 88.996,-59.999c34.531,-14.606 71.201,-22.011 108.994,-22.011c37.793,0 74.464,7.405 108.993,22.011c33.345,14.103 63.287,34.29 88.997,59.999c25.709,25.71 45.897,55.652 59.999,88.997c14.606,34.529 22.011,71.2 22.011,108.993c0,37.793 -7.405,74.464 -22.011,108.993c-14.102,33.345 -34.29,63.287 -59.999,88.997c-25.71,25.709 -55.652,45.897 -88.997,59.999c-34.529,14.606 -71.2,22.011 -108.993,22.011m0,-16c145.803,0 264,-118.196 264,-264c0,-145.803 -118.197,-264 -264,-264c-145.803,0 -264,118.197 -264,264c0,145.804 118.197,264 264,264" id="path21528"/>
     </g>
     <g id="g21530">
      <path fill="#ffffff" fill-rule="nonzero" d="m191.8486,205.14549c-0.423,-4 -4.892,-6.179 -8.264,-3.987c-24.283,15.779 -85.571,80.677 -11.571,162.809c73.487,81.563 169.567,37.861 265.702,95.873c2.907,1.755 6.665,0.165 7.401,-3.15c13.134,-59.172 20.961,-187.976 -39.103,-247.223c-73.5,-72.5 -133.5,-40.5 -166,-29c-1.5,-18 4.501,-41.921 9.501,-58.421c5,-16.5 -27.001,-21.079 -31.001,-18.079c-4,3 -18.611,83.753 18.5,133c47.5,63.032 163,118 166.5,162.5c-22.5,-20 -51.809,-46.518 -129,-89.5c-68.444,-38.111 -80.629,-85.598 -82.665,-104.822" id="path21532"/>
     </g>
    </g>
   </g>
  </g>
  <text x="36" xml:space="preserve" text-anchor="start" font-family="Georgia, Times, 'Times New Roman', serif" font-size="200" id="svg_2" y="200" stroke-width="0" fill="#000000"/>
  <text style="cursor: text;" xml:space="preserve" text-anchor="start" font-family="Helvetica, Arial, sans-serif" font-size="200" id="svg_5" y="150" x="0.00519" stroke-width="0" fill="#7da82a">2</text>
 </g>
</svg>