<svg width="746.66663" height="746.66663" xmlns="http://www.w3.org/2000/svg">
 <metadata id="metadata20918">image/svg+xml</metadata>
 <defs>
  <clipPath clipPathUnits="userSpaceOnUse" id="clipPath20928">
   <path d="m0,600l600,0l0,-600l-600,0l0,600z" id="path20926"/>
  </clipPath>
 </defs>
 <g>
  <title>background</title>
  <rect fill="none" id="canvas_background" height="602" width="802" y="-1" x="-1"/>
 </g>
 <g>
  <title>Layer 1</title>
  <g id="g20920" transform="matrix(1.3333333,0,0,-1.3333333,-26.666666,773.33331) ">
   <g id="g20922">
    <g id="g20924" clip-path="url(#clipPath20928)">
     <g id="g20930">
      <path fill="#e2421f" fill-rule="nonzero" d="m300,28c-72.653,0 -140.959,28.293 -192.333,79.667c-51.374,51.374 -79.667,119.68 -79.667,192.333c0,72.654 28.293,140.959 79.667,192.333c51.374,51.374 119.68,79.667 192.333,79.667c72.653,0 140.959,-28.293 192.333,-79.667c51.374,-51.374 79.667,-119.679 79.667,-192.333c0,-72.653 -28.293,-140.959 -79.667,-192.333c-51.374,-51.374 -119.68,-79.667 -192.333,-79.667" id="path20932"/>
     </g>
     <g id="g20934">
      <path fill="#ffffff" fill-rule="nonzero" d="m300,580c-37.793,0 -74.464,-7.405 -108.993,-22.01c-33.345,-14.104 -63.287,-34.291 -88.997,-60c-25.709,-25.71 -45.897,-55.652 -59.999,-88.996c-14.606,-34.531 -22.011,-71.201 -22.011,-108.994c0,-37.793 7.405,-74.464 22.011,-108.993c14.102,-33.345 34.29,-63.287 59.999,-88.997c25.71,-25.709 55.652,-45.897 88.997,-59.999c34.529,-14.606 71.2,-22.011 108.993,-22.011c37.793,0 74.464,7.405 108.993,22.011c33.345,14.102 63.287,34.29 88.997,59.999c25.709,25.71 45.897,55.652 59.999,88.997c14.606,34.529 22.011,71.2 22.011,108.993c0,37.793 -7.405,74.463 -22.011,108.994c-14.102,33.344 -34.29,63.286 -59.999,88.996c-25.71,25.709 -55.652,45.896 -88.997,60c-34.529,14.605 -71.2,22.01 -108.993,22.01m0,-16c145.803,0 264,-118.197 264,-264c0,-145.803 -118.197,-264 -264,-264c-145.803,0 -264,118.197 -264,264c0,145.803 118.197,264 264,264" id="path20936"/>
     </g>
     <g id="g20938">
      <path fill="#ffffff" fill-rule="nonzero" d="m386.06161,369.9458c-42.5,34.5 -58.5,99.5 -47,143.5c-25.5,-2.5 -66.272,-25.288 -83.5,-89.5c-22,-82 43.996,-140.5 0,-170.5c-51.444,-35.079 -86.5,26 -82,82.5c-30,-23.5 -48.447,-119.579 -9.5,-178c28,-42 63.811,-66.136 109.516,-71.391c-14.745,10.442 -15.741,29.913 -10.516,44.891c7.5,21.5 32.239,31.107 55.5,49c26,20 37,40 38.5,49.5c13,-19.5 28.581,-48.317 15.5,-91c-6.013,-19.62 -16.979,-38.34 -34.339,-49.45c54.976,14.201 119.664,61.891 119.839,145.95c0.156,75 -37.865,106.791 -72,134.5" id="path20940"/>
     </g>
    </g>
   </g>
  </g>
  <text xml:space="preserve" text-anchor="start" font-family="Helvetica, Arial, sans-serif" font-size="200" id="svg_2" y="150" x="13" stroke-width="0" fill="#e2421f">3</text>
 </g>
</svg>
