<svg width="746.66663" height="746.66663" xmlns="http://www.w3.org/2000/svg">
 <metadata id="metadata20326">image/svg+xml</metadata>
 <defs>
  <clipPath clipPathUnits="userSpaceOnUse" id="clipPath20336">
   <path d="m0,600l600,0l0,-600l-600,0l0,600z" id="path20334"/>
  </clipPath>
 </defs>
 <g>
  <title>background</title>
  <rect fill="none" id="canvas_background" height="602" width="802" y="-1" x="-1"/>
 </g>
 <g>
  <title>Layer 1</title>
  <g id="g20328" transform="matrix(1.3333333,0,0,-1.3333333,-26.667066,773.33331) ">
   <g id="g20330">
    <g id="g20332" clip-path="url(#clipPath20336)">
     <g id="g20338">
      <path fill="#56c8ef" fill-rule="nonzero" d="m300.00031,28c-72.654,0 -140.959,28.293 -192.333,79.667c-51.374,51.374 -79.667,119.68 -79.667,192.333c0,72.654 28.293,140.959 79.667,192.333c51.374,51.374 119.679,79.667 192.333,79.667c72.653,0 140.959,-28.293 192.333,-79.667c51.374,-51.374 79.667,-119.679 79.667,-192.333c0,-72.653 -28.293,-140.959 -79.667,-192.333c-51.374,-51.374 -119.68,-79.667 -192.333,-79.667" id="path20340"/>
     </g>
     <g id="g20342">
      <path fill="#ffffff" fill-rule="nonzero" d="m300.00031,580c-37.793,0 -74.464,-7.405 -108.994,-22.01c-33.344,-14.104 -63.286,-34.291 -88.996,-60c-25.709,-25.71 -45.897,-55.652 -60,-88.996c-14.605,-34.531 -22.01,-71.201 -22.01,-108.994c0,-37.793 7.405,-74.464 22.01,-108.993c14.103,-33.345 34.291,-63.287 60,-88.997c25.71,-25.709 55.652,-45.897 88.996,-59.999c34.53,-14.606 71.201,-22.011 108.994,-22.011c37.792,0 74.463,7.405 108.993,22.011c33.344,14.102 63.287,34.29 88.996,59.999c25.71,25.71 45.897,55.652 60,88.997c14.606,34.529 22.011,71.2 22.011,108.993c0,37.793 -7.405,74.463 -22.011,108.994c-14.103,33.344 -34.29,63.286 -60,88.996c-25.709,25.709 -55.652,45.896 -88.996,60c-34.53,14.605 -71.201,22.01 -108.993,22.01m0,-16c145.803,0 264,-118.197 264,-264c0,-145.803 -118.197,-264 -264,-264c-145.804,0 -264,118.197 -264,264c0,145.803 118.196,264 264,264" id="path20344"/>
     </g>
     <g id="g20346">
      <path fill="#ffffff" fill-rule="nonzero" d="m300.00031,256.35739l-37.729,21.782l0,43.567l37.729,21.783l37.729,-21.783l0,-43.567l-37.729,-21.782zm182.664,-2.602l-38.139,-27.986l-30.576,18.524l49.5,34.673c3.166,2.218 3.935,6.583 1.717,9.75c-2.219,3.165 -6.582,3.936 -9.75,1.717l-54.553,-38.213l-49.134,29.767l0,35.871l49.135,29.768l54.552,-38.214c1.223,-0.856 2.623,-1.267 4.011,-1.267c2.206,0 4.377,1.04 5.739,2.984c2.218,3.166 1.449,7.532 -1.717,9.749l-49.499,34.675l30.575,18.524l38.139,-27.987c1.248,-0.916 2.698,-1.357 4.136,-1.357c2.153,0 4.278,0.99 5.649,2.859c2.287,3.118 1.614,7.498 -1.502,9.786l-33.459,24.552l29.336,17.773c3.348,1.932 4.495,6.214 2.563,9.562c-1.933,3.348 -6.213,4.496 -9.563,2.562l-30.065,-16.465l-4.529,41.199c-0.421,3.844 -3.881,6.621 -7.722,6.193c-3.843,-0.422 -6.616,-3.879 -6.194,-7.722l5.161,-46.945l-31.334,-17.159l-5.268,60.069c-0.338,3.85 -3.711,6.71 -7.585,6.361c-3.851,-0.337 -6.699,-3.733 -6.362,-7.584l5.803,-66.19l-50.569,-27.693l-30.678,17.712l-1.27,57.719l60.278,28.095c3.504,1.632 5.021,5.797 3.388,9.301c-1.633,3.503 -5.796,5.022 -9.302,3.388l-54.701,-25.495l-0.787,35.725l43.262,19.017c3.54,1.556 5.147,5.686 3.591,9.225c-1.556,3.538 -5.686,5.148 -9.224,3.591l-37.962,-16.687l-0.755,34.279c0,3.867 -3.134,7 -7,7c-3.866,0 -7,-3.133 -7,-7l-0.746,-34.282l-37.972,16.69c-3.538,1.557 -7.67,-0.053 -9.224,-3.591c-1.556,-3.539 0.051,-7.669 3.591,-9.225l43.276,-19.022l-0.778,-35.73l-54.724,25.505c-3.506,1.633 -7.668,0.116 -9.302,-3.388c-1.633,-3.504 -0.116,-7.669 3.388,-9.301l60.305,-28.107l-1.253,-57.683l-30.711,-17.73l-50.579,27.694l5.802,66.183c0.337,3.851 -2.51,7.247 -6.362,7.584c-3.858,0.347 -7.248,-2.511 -7.585,-6.361l-5.266,-60.063l-31.334,17.157l5.159,46.941c0.422,3.843 -2.351,7.301 -6.194,7.722c-3.83,0.425 -7.3,-2.349 -7.722,-6.193l-4.528,-41.196l-30.065,16.463c-3.348,1.932 -7.629,0.785 -9.563,-2.563c-1.932,-3.347 -0.785,-7.629 2.563,-9.561l29.336,-17.773l-33.46,-24.553c-3.116,-2.288 -3.789,-6.668 -1.502,-9.785c1.371,-1.869 3.496,-2.859 5.649,-2.859c1.438,0 2.888,0.441 4.136,1.356l38.14,27.987l30.575,-18.524l-49.5,-34.675c-3.166,-2.217 -3.935,-6.583 -1.717,-9.749c1.362,-1.944 3.533,-2.984 5.739,-2.984c1.387,0 2.788,0.411 4.011,1.267l54.553,38.214l49.135,-29.769l0,-35.498l-49.316,-30.013l-54.373,38.087c-3.164,2.219 -7.529,1.449 -9.749,-1.718c-2.218,-3.166 -1.449,-7.531 1.718,-9.749l49.346,-34.566l-30.509,-18.567l-38.053,27.922c-3.118,2.289 -7.499,1.614 -9.785,-1.502c-2.287,-3.117 -1.614,-7.498 1.502,-9.785l33.399,-24.508l-29.275,-17.817c-3.348,-1.933 -4.495,-6.215 -2.563,-9.562c1.297,-2.246 3.65,-3.501 6.07,-3.501c1.187,0 2.39,0.302 3.493,0.938l30.057,16.537l4.536,-41.27c0.393,-3.583 3.425,-6.237 6.949,-6.237c0.256,0 0.513,0.015 0.773,0.043c3.843,0.422 6.616,3.88 6.194,7.723l-5.17,47.048l31.329,17.236l5.282,-60.249c0.319,-3.643 3.376,-6.388 6.966,-6.388c0.204,0 0.411,0.008 0.619,0.026c3.852,0.338 6.699,3.733 6.362,7.585l-5.821,66.402l50.276,27.66l30.91,-17.845l1.299,-57.635l-60.228,-28.071c-3.504,-1.633 -5.021,-5.798 -3.388,-9.302c1.188,-2.548 3.712,-4.045 6.35,-4.045c0.989,0 1.996,0.212 2.952,0.657l54.659,25.476l0.805,-35.717l-43.238,-19.006c-3.54,-1.556 -5.147,-5.685 -3.591,-9.225c1.153,-2.623 3.719,-4.185 6.412,-4.185c0.94,0 1.896,0.191 2.812,0.594l37.946,16.679l0.772,-34.271c0,-3.866 3.134,-7 7,-7c3.866,0 7,3.134 7,7l0.729,34.291l37.988,-16.699c0.916,-0.404 1.872,-0.594 2.812,-0.594c2.693,0 5.26,1.562 6.412,4.185c1.556,3.54 -0.051,7.669 -3.59,9.225l-43.301,19.034l0.759,35.739l54.767,-25.526c0.957,-0.446 1.962,-0.657 2.952,-0.657c2.637,0 5.162,1.497 6.35,4.045c1.633,3.504 0.116,7.669 -3.388,9.302l-60.356,28.13l1.22,57.456l30.797,17.781l50.578,-27.695l-5.803,-66.183c-0.337,-3.852 2.511,-7.247 6.362,-7.585c0.208,-0.018 0.414,-0.026 0.619,-0.026c3.59,0 6.646,2.745 6.966,6.388l5.267,60.064l31.333,-17.158l-5.159,-46.941c-0.422,-3.843 2.351,-7.301 6.194,-7.723c0.26,-0.028 0.517,-0.043 0.773,-0.043c3.523,0 6.556,2.654 6.949,6.237l4.528,41.197l30.066,-16.464c1.103,-0.636 2.306,-0.938 3.493,-0.938c2.419,0 4.773,1.256 6.07,3.501c1.932,3.347 0.785,7.629 -2.563,9.562l-29.336,17.773l33.459,24.552c3.116,2.287 3.789,6.668 1.502,9.785c-2.286,3.117 -6.667,3.791 -9.785,1.502" id="path20348"/>
     </g>
    </g>
   </g>
  </g>
  <text xml:space="preserve" text-anchor="start" font-family="Helvetica, Arial, sans-serif" font-size="200" id="svg_1" y="150" x="0" stroke-width="0" fill="#56c8ef">4</text>
 </g>
</svg>
