<svg width="746.66663" height="746.66663" xmlns="http://www.w3.org/2000/svg">
 <metadata id="metadata22102">image/svg+xml</metadata>
 <defs>
  <clipPath clipPathUnits="userSpaceOnUse" id="clipPath22112">
   <path d="m0,600l600,0l0,-600l-600,0l0,600z" id="path22110"/>
  </clipPath>
 </defs>
 <g>
  <title>background</title>
  <rect fill="none" id="canvas_background" height="602" width="802" y="-1" x="-1"/>
 </g>
 <g>
  <title>Layer 1</title>
  <g id="g22104" transform="matrix(1.3333333,0,0,-1.3333333,-26.667066,773.33331) ">
   <g id="g22106">
    <g id="g22108" clip-path="url(#clipPath22112)">
     <g id="g22114">
      <path fill="#eca610" fill-rule="nonzero" d="m300.00031,28c-72.654,0 -140.959,28.293 -192.333,79.667c-51.374,51.374 -79.667,119.68 -79.667,192.333c0,72.653 28.293,140.959 79.667,192.333c51.374,51.374 119.679,79.667 192.333,79.667c72.653,0 140.959,-28.293 192.333,-79.667c51.374,-51.374 79.667,-119.68 79.667,-192.333c0,-72.653 -28.293,-140.959 -79.667,-192.333c-51.374,-51.374 -119.68,-79.667 -192.333,-79.667" id="path22116"/>
     </g>
     <g id="g22118">
      <path fill="#ffffff" fill-rule="nonzero" d="m300.00031,580c-37.793,0 -74.464,-7.405 -108.994,-22.011c-33.344,-14.102 -63.286,-34.29 -88.996,-59.999c-25.709,-25.71 -45.897,-55.652 -60,-88.997c-14.605,-34.529 -22.01,-71.2 -22.01,-108.993c0,-37.793 7.405,-74.464 22.01,-108.993c14.103,-33.345 34.291,-63.287 60,-88.997c25.71,-25.709 55.652,-45.896 88.996,-59.999c34.53,-14.606 71.201,-22.011 108.994,-22.011c37.792,0 74.463,7.405 108.993,22.011c33.344,14.103 63.287,34.29 88.996,59.999c25.71,25.71 45.897,55.652 60,88.997c14.606,34.529 22.011,71.2 22.011,108.993c0,37.793 -7.405,74.464 -22.011,108.993c-14.103,33.345 -34.29,63.287 -60,88.997c-25.709,25.709 -55.652,45.897 -88.996,59.999c-34.53,14.606 -71.201,22.011 -108.993,22.011m0,-16c145.803,0 264,-118.196 264,-264c0,-145.803 -118.197,-264 -264,-264c-145.804,0 -264,118.197 -264,264c0,145.804 118.196,264 264,264" id="path22120"/>
     </g>
     <g id="g22122">
      <path fill="#ffffff" fill-rule="nonzero" d="m420.69171,263.32709l-9.044,27.255l23.505,9.418l-23.504,9.418l9.042,27.252l61.997,-36.673l-61.996,-36.67zm8.504,-92.473l-69.776,17.889l12.869,25.65l23.279,-9.961l-9.961,23.28l25.675,12.882l17.914,-69.74zm-129.142,-53.492l-36.693,61.957l27.222,9.032l9.418,-23.503l9.417,23.503l27.262,-9.045l-36.626,-61.944zm-129.142,53.492l17.848,69.718l25.633,-12.86l-9.96,-23.28l23.279,9.961l12.875,-25.661l-69.675,-17.878zm-53.492,129.143l61.897,36.648l9.034,-27.228l-23.504,-9.417l23.504,-9.417l-9.035,-27.232l-61.896,36.646zm53.492,129.142l69.674,-17.875l-12.874,-25.658l-23.279,9.961l9.96,-23.279l-25.634,-12.86l-17.847,69.711zm129.142,53.493l36.625,-61.939l-27.26,-9.046l-9.418,23.505l-9.418,-23.505l-27.221,9.033l36.692,61.952zm66.4,-155.106l14.078,32.9l26.922,-15.926l-7.78,-30.284l-33.22,13.31zm0,-55.053l33.22,13.311l7.78,-30.287l-26.922,-15.924l-14.078,32.9zm-38.928,-38.927l32.902,-14.078l-15.909,-26.906l-30.302,7.769l13.309,33.215zm-55.052,0l13.31,-33.217l-30.267,-7.766l-15.936,26.909l32.893,14.074zm-38.927,38.927l-14.076,-32.895l-26.889,15.92l7.753,30.283l33.212,-13.308zm0,55.053l-33.212,-13.307l-7.753,30.281l26.889,15.921l14.076,-32.895zm38.927,38.928l-32.893,14.074l15.935,26.906l30.267,-7.764l-13.309,-33.216zm55.052,0l-13.308,33.213l30.302,7.767l15.908,-26.902l-32.902,-14.078zm101.67,62.685l-17.913,-69.733l-25.676,12.882l9.961,23.279l-23.279,-9.961l-12.868,25.648l69.775,17.885zm89.802,-123.776l-93.182,46.752l32.831,98.947c0.715,2.155 0.153,4.528 -1.452,6.132c-1.605,1.605 -3.98,2.171 -6.132,1.452l-98.947,-32.831l-46.752,93.183c-1.019,2.029 -3.094,3.309 -5.363,3.309c-2.27,0 -4.345,-1.28 -5.364,-3.309l-46.752,-93.183l-98.947,32.831c-2.153,0.718 -4.528,0.153 -6.132,-1.452c-1.605,-1.604 -2.167,-3.977 -1.452,-6.132l32.83,-98.948l-93.181,-46.751c-2.03,-1.018 -3.31,-3.094 -3.31,-5.363c0,-2.27 1.28,-4.345 3.31,-5.363l93.181,-46.751l-32.83,-98.949c-0.715,-2.154 -0.153,-4.527 1.452,-6.131c1.605,-1.605 3.978,-2.169 6.132,-1.453l98.947,32.831l46.752,-93.182c1.019,-2.029 3.094,-3.31 5.364,-3.31c2.269,0 4.344,1.281 5.363,3.31l46.751,93.182l98.948,-32.831c0.619,-0.206 1.257,-0.305 1.889,-0.305c1.566,0 3.1,0.614 4.243,1.758c1.605,1.604 2.167,3.977 1.452,6.131l-32.832,98.948l93.183,46.752c2.029,1.018 3.309,3.093 3.309,5.363c0,2.269 -1.28,4.345 -3.309,5.363" id="path22124"/>
     </g>
    </g>
   </g>
  </g>
  <text xml:space="preserve" text-anchor="start" font-family="Helvetica, Arial, sans-serif" font-size="200" id="svg_3" y="150" x="14" stroke-width="0" fill="#eca610">5</text>
 </g>
</svg>
